<?xml version="1.0" standalone="no"?>
<!DOCTYPE svg PUBLIC "-//W3C//DTD SVG 20010904//EN"
 "http://www.w3.org/TR/2001/REC-SVG-20010904/DTD/svg10.dtd">
<svg version="1.0" xmlns="http://www.w3.org/2000/svg"
 width="512.000000pt" height="512.000000pt" viewBox="0 0 512.000000 512.000000"
 preserveAspectRatio="xMidYMid meet">
<metadata>
Created by potrace 1.11, written by Peter Selinger 2001-2013
</metadata>
<g transform="translate(0.000000,512.000000) scale(0.100000,-0.100000)"
fill="#000000" stroke="none">
<path d="M1299 4730 c-163 -29 -255 -207 -185 -355 45 -95 127 -147 231 -147
38 0 78 7 96 16 17 9 36 13 42 9 5 -3 7 -2 4 3 -3 6 7 18 23 29 69 47 106 185
74 280 -39 112 -167 186 -285 165z"/>
<path d="M2529 4476 c-2 -2 -27 -6 -55 -10 -61 -7 -167 -39 -244 -73 -192 -85
-371 -259 -465 -452 -39 -79 -81 -213 -91 -286 -17 -131 -6 -364 25 -495 17
-71 16 -72 -31 -66 -24 3 -74 8 -113 11 -38 4 -77 8 -85 10 -8 2 -46 7 -85 10
-38 3 -86 8 -105 10 -19 2 -66 7 -105 10 -38 3 -86 8 -105 10 -72 9 -156 18
-185 20 -91 7 -192 18 -210 21 -11 2 -47 6 -80 9 -33 3 -77 8 -98 10 -21 3
-71 7 -112 11 l-73 6 -145 -143 c-79 -79 -150 -154 -156 -166 -17 -34 -4 -69
32 -87 18 -8 169 -67 337 -132 719 -276 879 -337 942 -361 l66 -25 -95 -116
c-53 -65 -107 -132 -122 -150 -189 -238 -172 -221 -218 -222 -28 0 -43 4 -43
13 0 9 -2 9 -8 1 -4 -7 -20 -10 -37 -9 -16 2 -77 7 -135 10 -58 4 -125 8 -150
10 -25 2 -95 6 -157 10 l-112 7 -131 -130 c-108 -108 -130 -135 -130 -160 0
-16 8 -36 18 -45 10 -9 192 -74 406 -145 213 -72 392 -134 396 -138 10 -10 76
-205 82 -239 2 -11 5 -22 8 -25 3 -3 44 -119 90 -259 46 -139 93 -264 103
-277 35 -45 59 -33 189 93 66 65 126 130 134 144 7 15 12 44 9 65 -2 22 -6 89
-10 149 -4 61 -8 126 -10 145 -2 19 -6 87 -10 150 -4 63 -8 130 -10 148 -1 17
0 32 4 32 3 0 20 13 36 28 17 15 84 70 150 122 132 104 131 103 228 185 37 32
69 56 71 54 3 -5 197 -510 200 -524 2 -5 8 -21 14 -35 28 -66 225 -579 234
-610 5 -19 13 -39 17 -45 4 -5 20 -42 35 -82 30 -78 44 -90 97 -84 17 2 288
272 303 301 13 26 13 31 2 140 -11 101 -15 139 -21 215 -3 39 -8 81 -10 95 -5
32 -16 131 -30 285 -3 33 -7 78 -10 100 -2 22 -7 67 -10 100 -4 33 -8 77 -11
97 l-4 38 93 -68 c50 -37 97 -70 102 -75 6 -4 65 -48 133 -98 72 -53 120 -95
116 -101 -4 -7 -2 -8 5 -4 6 4 47 -22 97 -63 48 -39 93 -71 101 -71 15 0 54
18 63 29 15 19 185 151 315 246 83 61 155 113 160 118 6 4 33 24 60 44 486
356 793 686 963 1038 34 70 100 242 108 280 2 11 11 48 20 83 42 172 53 487
20 612 -80 305 -258 524 -534 658 -45 23 -85 41 -87 41 -3 1 -10 1 -16 1 -5 0
-7 5 -3 12 4 6 3 8 -4 4 -5 -3 -43 1 -84 10 -144 32 -347 22 -480 -22 -57 -19
-172 -72 -228 -105 -70 -42 -190 -154 -246 -230 l-22 -30 -32 40 c-18 23 -28
46 -24 52 4 7 3 9 -3 6 -5 -3 -35 18 -67 48 -127 120 -293 208 -466 245 -51
11 -263 23 -271 16z"/>
<path d="M505 4080 c-71 -32 -108 -81 -118 -153 -9 -70 28 -148 88 -183 40
-24 52 -27 108 -27 163 0 243 201 128 320 -52 54 -141 73 -206 43z"/>
<path d="M4075 1007 c-119 -46 -186 -163 -164 -282 32 -172 210 -261 366 -182
88 45 135 127 137 239 0 36 -2 65 -5 63 -3 -2 -11 11 -18 30 -16 44 -98 118
-149 133 -49 15 -127 14 -167 -1z"/>
</g>
</svg>
