<?xml version="1.0" standalone="no"?>
<!DOCTYPE svg PUBLIC "-//W3C//DTD SVG 20010904//EN"
 "http://www.w3.org/TR/2001/REC-SVG-20010904/DTD/svg10.dtd">
<svg version="1.0" xmlns="http://www.w3.org/2000/svg"
 width="863.000000pt" height="200.000000pt" viewBox="0 0 863.000000 200.000000"
 preserveAspectRatio="xMidYMid meet">

<g transform="translate(0.000000,200.000000) scale(0.100000,-0.100000)"
fill="#000000" stroke="none">
<path d="M3448 1988 c-9 -7 -46 -103 -82 -213 l-65 -200 -235 -5 c-242 -5
-262 -9 -254 -46 3 -18 18 -19 231 -22 173 -2 227 -5 227 -15 0 -13 -107 -354
-116 -368 -3 -5 -11 -9 -17 -9 -7 0 -60 -33 -120 -74 -110 -76 -161 -95 -197
-76 -12 6 -36 45 -55 85 -43 95 -76 119 -153 111 -33 -3 -73 -16 -108 -35 -29
-17 -54 -26 -54 -20 0 6 8 40 17 76 17 63 17 65 -2 79 -24 18 -47 18 -88 0
-30 -12 -36 -22 -55 -89 l-22 -76 -103 -84 c-182 -150 -291 -207 -395 -207
-76 0 -98 21 -95 88 2 47 20 72 52 72 27 0 124 50 154 78 88 83 72 185 -31
199 -22 3 -56 0 -76 -7 -112 -37 -245 -229 -247 -359 -3 -105 56 -146 206
-146 135 1 279 51 424 149 30 20 55 35 57 33 2 -1 -6 -38 -17 -81 -23 -89 -17
-106 37 -106 58 0 81 18 129 104 55 99 121 184 170 222 42 32 46 29 70 -49 30
-99 79 -137 180 -137 66 0 146 26 228 75 33 20 61 34 63 33 1 -2 -38 -131 -87
-288 -166 -524 -198 -634 -187 -647 16 -20 92 -16 111 5 9 10 109 308 222 662
113 355 217 680 231 723 l26 77 623 0 c452 0 631 3 650 12 28 13 33 43 9 52
-9 3 -294 6 -635 6 -444 0 -619 3 -619 11 0 6 27 96 61 201 33 104 58 196 55
204 -7 18 -95 19 -118 2z m-1643 -902 c-10 -14 -22 -26 -27 -26 -5 0 0 14 12
31 26 36 39 32 15 -5z"/>
<path d="M1418 1765 c-23 -13 -27 -23 -33 -82 -19 -201 -88 -444 -184 -647
-58 -123 -156 -277 -223 -348 -53 -57 -92 -65 -108 -22 -16 42 -11 206 11 348
11 73 19 160 17 192 l-3 59 -49 3 -50 3 -70 -74 c-121 -126 -229 -289 -406
-607 -57 -102 -117 -206 -134 -232 -29 -45 -31 -47 -39 -25 -13 34 -1 98 78
422 79 322 143 543 225 775 65 184 69 205 40 220 -28 15 -82 5 -104 -19 -21
-23 -140 -365 -202 -579 -107 -372 -190 -749 -182 -834 4 -39 12 -57 37 -81
27 -27 39 -32 80 -32 101 0 170 78 351 396 63 111 148 252 188 313 l74 111 -7
-50 c-3 -27 -10 -86 -16 -130 -24 -187 35 -309 148 -307 152 3 348 195 478
468 95 199 180 489 192 653 5 84 4 95 -12 107 -24 18 -63 17 -97 -1z"/>
<path d="M5215 1755 c-223 -60 -432 -242 -645 -560 -275 -412 -382 -679 -337
-836 22 -74 65 -122 145 -161 65 -32 69 -33 197 -32 119 0 138 3 230 33 126
42 248 103 348 174 42 31 77 55 77 53 0 -2 -15 -46 -34 -98 -48 -132 -59 -202
-43 -258 16 -57 49 -76 106 -60 43 11 52 24 40 55 -12 32 -10 107 6 167 18 70
116 317 202 511 54 122 64 151 52 158 -17 12 -79 7 -234 -19 -66 -11 -180 -30
-253 -42 -131 -21 -182 -35 -182 -51 0 -18 48 -39 90 -39 62 0 152 -17 217
-42 45 -16 53 -23 53 -45 0 -45 -31 -92 -115 -170 -100 -95 -209 -162 -341
-209 -265 -95 -424 -30 -424 174 0 120 103 356 264 609 124 194 217 315 336
434 87 88 119 113 189 147 99 50 149 55 186 18 38 -38 49 -97 48 -249 l-1
-138 25 -10 c32 -12 88 -2 105 19 9 11 13 57 13 161 0 142 -1 148 -30 206 -26
52 -37 64 -84 88 -62 31 -124 34 -206 12z m175 -945 c0 -6 -7 -24 -15 -40
l-15 -28 -60 26 -61 27 68 11 c37 6 71 12 76 13 4 0 7 -4 7 -9z"/>
<path d="M6800 1257 c-32 -11 -37 -18 -58 -84 -22 -70 -25 -73 -82 -108 -94
-57 -167 -60 -194 -7 -7 15 -19 53 -26 84 -14 73 -30 88 -85 88 -59 0 -90 -32
-210 -214 -51 -78 -105 -154 -119 -169 -28 -30 -61 -35 -70 -11 -12 30 -6 156
10 216 18 72 13 81 -51 81 -61 0 -80 -20 -99 -104 -31 -135 -13 -238 49 -287
38 -30 131 -30 191 -2 57 28 131 106 200 211 l58 88 18 -30 c39 -64 158 -86
282 -54 33 9 60 14 62 12 2 -2 -13 -56 -32 -121 -19 -66 -33 -125 -30 -132 4
-9 23 -14 56 -14 l51 0 114 109 c165 158 289 230 525 303 52 16 76 28 78 40
16 87 -341 -21 -550 -165 -38 -26 -68 -44 -68 -39 0 4 11 43 24 87 50 164 57
199 43 211 -20 20 -50 23 -87 11z"/>
<path d="M8063 1217 c-29 -17 -71 -71 -168 -217 -46 -69 -94 -137 -108 -152
-29 -31 -62 -36 -71 -12 -12 31 -6 159 10 216 20 71 14 81 -49 82 -61 1 -82
-20 -101 -105 -30 -128 -17 -220 39 -276 30 -30 38 -33 96 -33 112 0 194 62
305 231 l58 88 18 -30 c67 -110 309 -86 490 49 69 52 65 72 -16 74 -37 0 -56
-7 -113 -45 -101 -67 -156 -82 -203 -57 -18 9 -41 68 -55 138 -4 18 -13 39
-22 47 -17 18 -79 19 -110 2z"/>
</g>
</svg>
