<?xml version="1.0" standalone="no"?>
<!DOCTYPE svg PUBLIC "-//W3C//DTD SVG 20010904//EN"
 "http://www.w3.org/TR/2001/REC-SVG-20010904/DTD/svg10.dtd">
<svg version="1.0" xmlns="http://www.w3.org/2000/svg"
 width="733.000000pt" height="200.000000pt" viewBox="0 0 733.000000 200.000000"
 preserveAspectRatio="xMidYMid meet">

<g transform="translate(0.000000,200.000000) scale(0.100000,-0.100000)"
fill="#000000" stroke="none">
<path d="M3091 1977 c-16 -18 -28 -57 -47 -153 -14 -70 -26 -129 -27 -130 -10
-10 -399 -37 -537 -38 -193 -1 -217 3 -200 33 15 30 2 53 -29 49 -31 -4 -38
-27 -21 -69 9 -21 23 -32 54 -41 57 -17 299 -12 531 10 105 10 191 18 193 16
2 -1 -6 -76 -18 -165 -11 -90 -26 -254 -32 -364 -9 -179 -15 -217 -50 -359
-64 -255 -160 -517 -198 -541 -14 -9 -13 3 10 124 51 272 74 716 47 876 -30
170 -89 242 -189 231 -125 -13 -213 -142 -273 -401 -13 -55 -24 -98 -25 -95
-1 3 -5 68 -10 144 -8 154 -14 166 -76 166 -54 0 -64 -20 -64 -119 0 -100 -14
-149 -84 -296 -85 -179 -180 -301 -269 -344 -67 -32 -100 -28 -147 19 -38 38
-58 86 -74 178 -5 29 -3 32 20 32 69 0 171 106 246 256 40 81 51 113 55 165 5
77 -8 107 -57 131 -114 58 -247 -24 -335 -206 -52 -109 -73 -184 -81 -291 -13
-170 40 -299 141 -346 50 -23 91 -23 182 -1 148 37 282 192 385 445 l32 77 32
-127 c39 -158 76 -246 101 -241 15 3 19 20 26 118 10 158 43 347 78 455 51
154 120 235 200 235 42 0 61 -18 79 -74 19 -60 6 -321 -30 -611 -44 -348 -35
-488 34 -539 25 -19 29 -19 54 -5 57 31 116 165 195 438 l42 144 12 -94 c21
-155 66 -283 122 -342 30 -33 91 -67 120 -67 32 0 104 36 133 66 66 71 125
257 152 479 29 252 29 286 -6 272 -11 -4 -16 -33 -21 -119 -21 -356 -119 -638
-222 -638 -27 0 -69 45 -84 92 -26 80 -43 245 -48 480 -6 263 12 756 28 773 6
6 115 10 287 10 354 0 400 -11 411 -97 5 -34 10 -43 26 -43 17 0 20 6 18 39
-2 22 -9 49 -17 61 -21 32 -95 63 -173 75 -82 12 -345 12 -463 0 -47 -4 -87
-6 -89 -5 -1 2 3 60 10 129 12 118 11 127 -6 146 -23 25 -27 25 -54 -3z
m-1259 -753 c30 -65 -53 -263 -155 -370 -47 -49 -69 -65 -92 -67 -30 -2 -30
-2 -27 48 10 154 77 325 152 388 44 37 105 38 122 1z"/>
<path d="M4510 1929 c-87 -6 -148 -32 -214 -90 -207 -183 -221 -606 -25 -783
105 -95 208 -119 365 -86 134 27 231 75 300 146 l55 56 -5 -33 c-3 -19 -8 -60
-11 -91 l-6 -57 -101 -51 c-280 -141 -436 -305 -484 -506 -40 -173 23 -337
155 -401 44 -22 73 -28 146 -31 83 -4 96 -2 144 22 185 94 262 321 265 782 l1
182 55 17 c30 10 60 19 65 21 6 3 9 -32 7 -96 -7 -190 26 -325 90 -373 17 -13
43 -20 80 -21 65 -1 121 30 169 96 l30 42 -8 -44 c-4 -25 -8 -85 -8 -135 0
-77 4 -96 25 -134 30 -54 61 -67 120 -51 96 26 163 142 270 469 39 116 70 218
70 226 0 21 17 27 42 14 13 -7 52 -12 87 -11 l63 1 -5 -39 c-3 -21 -36 -105
-75 -187 -79 -167 -92 -206 -92 -281 0 -96 42 -138 130 -130 41 4 58 12 85 38
49 47 100 151 149 302 l43 131 6 -74 c4 -41 12 -91 18 -112 15 -55 65 -106
114 -117 67 -16 103 -3 166 59 l57 56 -5 -120 c-4 -111 -3 -123 19 -165 29
-57 62 -74 118 -61 104 23 181 161 296 530 53 173 66 247 42 239 -14 -5 -13
-1 -102 -278 -37 -113 -84 -241 -105 -285 -70 -149 -160 -210 -192 -132 -20
46 -15 183 11 302 12 55 55 202 96 326 41 124 74 238 74 252 0 33 -43 49 -66
25 -19 -19 -82 -204 -124 -363 -37 -138 -76 -218 -140 -288 -39 -42 -51 -50
-85 -51 -36 -1 -39 1 -48 34 -5 19 -9 167 -9 328 2 279 1 293 -18 312 -23 23
-48 25 -73 5 -13 -9 -21 -36 -29 -92 -22 -179 -111 -496 -176 -631 -34 -71
-93 -137 -115 -129 -25 9 -8 121 44 287 34 111 53 190 56 242 5 72 4 78 -20
102 -22 22 -35 26 -88 26 -54 0 -60 2 -54 18 25 58 36 123 31 187 -14 190 -89
274 -171 192 -43 -43 -59 -102 -52 -197 4 -71 35 -161 58 -176 16 -10 10 -44
-37 -197 -115 -378 -203 -547 -285 -547 -48 0 -63 49 -56 175 8 128 40 257
129 521 39 117 68 219 65 228 -8 19 -55 32 -68 19 -16 -16 -87 -226 -124 -366
-56 -213 -148 -347 -238 -347 -14 0 -28 8 -33 18 -4 9 -9 159 -12 332 -3 267
-6 318 -19 333 -20 22 -45 22 -71 -1 -15 -13 -23 -38 -31 -101 -6 -46 -12 -85
-14 -87 -1 -1 -32 -11 -68 -21 l-65 -20 -18 165 c-17 165 -27 207 -48 200 -7
-3 -17 -32 -24 -66 -25 -122 -96 -211 -219 -275 -52 -28 -70 -31 -135 -31
-104 1 -176 30 -245 99 -73 74 -96 137 -102 280 -8 187 28 305 121 394 79 74
126 94 206 89 72 -5 111 -22 166 -71 42 -36 84 -117 84 -162 0 -16 5 -37 10
-45 8 -13 11 -13 24 0 20 21 5 108 -28 164 -70 120 -191 169 -376 155z m1608
-533 c27 -66 32 -185 11 -254 -14 -47 -19 -50 -41 -24 -45 50 -73 156 -63 233
7 53 40 112 58 106 7 -2 22 -29 35 -61z m-1158 -493 c0 -39 -28 -269 -46 -383
-36 -232 -98 -369 -198 -442 -73 -53 -178 -27 -241 61 -43 59 -60 119 -58 206
3 160 104 320 283 447 65 46 232 138 250 138 6 0 10 -12 10 -27z"/>
<path d="M1317 1903 c-2 -4 -8 -78 -11 -163 -33 -780 -102 -1337 -184 -1499
-35 -71 -56 -84 -83 -53 -58 71 -103 372 -139 927 -7 99 -16 197 -22 218 -9
39 -71 117 -92 117 -12 0 -48 -42 -73 -85 -7 -11 -12 -49 -13 -84 0 -50 -13
-102 -61 -250 -142 -431 -272 -740 -344 -817 -39 -41 -53 -40 -75 2 -20 38
-20 376 -1 898 l13 380 -29 27 c-45 40 -95 45 -151 17 l-47 -23 2 -295 c4
-688 93 -1080 246 -1080 89 0 216 248 388 760 38 113 69 207 70 210 0 3 9 -60
20 -138 54 -410 148 -715 249 -805 67 -61 133 -48 175 33 82 159 151 663 185
1365 13 252 11 336 -7 342 -6 2 -13 0 -16 -4z"/>
</g>
</svg>
