<?xml version="1.0" standalone="no"?>
<!DOCTYPE svg PUBLIC "-//W3C//DTD SVG 20010904//EN"
 "http://www.w3.org/TR/2001/REC-SVG-20010904/DTD/svg10.dtd">
<svg version="1.0" xmlns="http://www.w3.org/2000/svg"
 width="597.000000pt" height="200.000000pt" viewBox="0 0 597.000000 200.000000"
 preserveAspectRatio="xMidYMid meet">

<g transform="translate(0.000000,200.000000) scale(0.100000,-0.100000)"
fill="#000000" stroke="none">
<path d="M4229 1981 c-162 -52 -368 -247 -580 -547 -58 -82 -67 -90 -83 -79
-46 34 -157 49 -361 48 -110 -1 -221 -6 -247 -11 -27 -5 -48 -6 -48 -2 0 3 32
109 70 234 39 124 70 235 70 244 0 21 -19 42 -37 42 -16 0 -17 -2 -83 -185
-87 -239 -140 -355 -164 -360 -11 -2 -77 -11 -146 -20 -69 -10 -131 -22 -138
-28 -8 -6 -54 -13 -103 -15 -77 -4 -89 -7 -89 -22 0 -48 27 -49 308 -9 79 11
146 19 148 16 6 -6 -140 -330 -191 -422 -61 -112 -114 -193 -115 -175 0 8 7
58 16 111 10 58 14 110 10 134 -9 48 -57 95 -96 95 -52 0 -167 -118 -209 -214
-12 -27 -23 -47 -25 -45 -2 2 4 47 15 99 29 147 24 190 -22 190 -13 0 -20 -19
-33 -89 -19 -107 -50 -173 -122 -261 -146 -180 -260 -245 -299 -170 -20 38
-19 122 1 191 27 90 29 92 67 69 46 -28 86 -25 141 11 63 42 97 89 103 142 4
36 1 48 -22 75 -49 58 -131 49 -205 -23 -19 -19 -39 -35 -45 -37 -5 -2 -9 -7
-7 -11 1 -4 -5 -10 -13 -13 -9 -4 -28 -25 -44 -48 -105 -154 -92 -351 27 -427
29 -18 59 -29 82 -29 45 0 113 42 188 116 41 41 53 50 48 32 -16 -57 -27 -130
-21 -148 3 -11 20 -29 36 -41 40 -28 44 -22 94 106 47 123 84 199 142 290 74
116 165 197 150 133 -25 -103 -57 -297 -52 -318 7 -30 50 -80 70 -80 31 0 144
174 242 375 67 139 77 145 39 25 -76 -237 -127 -623 -96 -729 11 -38 48 -83
61 -75 5 3 9 49 9 102 0 165 47 440 130 772 27 107 57 220 67 250 17 52 20 55
58 63 76 15 441 20 523 8 121 -19 116 -9 62 -111 -165 -311 -237 -612 -181
-759 24 -65 68 -121 108 -137 121 -51 330 55 613 310 40 36 75 64 77 63 2 -2
-1 -26 -6 -54 -22 -112 -30 -250 -20 -312 11 -73 50 -141 79 -141 24 0 24 3 3
58 -15 40 -15 57 -5 153 7 60 26 174 43 255 33 163 31 189 -20 238 l-28 26
-96 -99 c-53 -55 -97 -105 -97 -110 0 -13 -150 -142 -159 -136 -4 2 -31 -14
-60 -36 -109 -82 -303 -150 -347 -121 -18 12 -26 51 -26 121 3 202 137 549
323 836 217 334 506 578 653 551 91 -17 94 -146 9 -324 -34 -69 -35 -75 -19
-90 16 -16 18 -16 33 3 24 31 64 121 79 178 38 144 -8 279 -107 307 -46 13
-64 12 -130 -9z m-2289 -1005 c0 -18 -102 -114 -135 -126 -31 -12 -75 -13 -75
-2 0 17 67 87 109 113 48 31 101 39 101 15z"/>
<path d="M420 1962 c-30 -15 -57 -29 -60 -32 -21 -21 -52 -42 -45 -31 5 9 -1
7 -19 -4 -14 -9 -23 -21 -20 -26 3 -5 1 -8 -5 -7 -5 2 -58 -46 -117 -107 -149
-152 -186 -238 -129 -302 l24 -28 1 41 c0 53 41 114 145 220 141 142 307 236
384 217 23 -6 24 -8 18 -82 -9 -126 -41 -229 -145 -481 -127 -307 -273 -708
-317 -872 -34 -123 -46 -319 -22 -364 24 -46 93 -104 124 -104 70 0 176 85
336 269 90 105 249 312 335 435 18 27 35 46 38 43 3 -3 -4 -53 -15 -111 -38
-195 -25 -310 42 -383 55 -60 88 -76 124 -62 61 23 138 125 231 306 153 300
312 853 316 1095 l1 97 -34 35 c-19 20 -38 36 -41 36 -3 0 -6 -39 -7 -87 -3
-204 -140 -700 -274 -992 -22 -46 -41 -95 -43 -108 -11 -60 -186 -322 -186
-278 0 4 -6 2 -14 -4 -46 -38 -41 147 12 423 27 138 38 216 32 227 -5 9 -26
31 -46 48 -35 31 -37 32 -57 14 -40 -35 -327 -434 -327 -454 0 -17 -52 -74
-64 -71 -6 2 -8 1 -4 -3 3 -4 -7 -19 -23 -33 -17 -15 -31 -36 -33 -47 -2 -11
-8 -20 -13 -20 -6 0 -49 -40 -95 -89 -92 -99 -192 -186 -213 -186 -23 0 -27
35 -16 128 18 146 89 384 208 697 193 508 273 759 273 861 0 81 -16 119 -69
167 -36 32 -47 37 -89 36 -30 0 -67 -10 -102 -27z m170 -1515 c0 -2 -10 -12
-22 -23 l-23 -19 19 23 c18 21 26 27 26 19z"/>
<path d="M4975 1068 c-3 -7 -16 -66 -30 -131 -19 -93 -32 -129 -57 -163 -17
-24 -35 -44 -40 -44 -4 0 -8 -7 -8 -15 0 -8 -9 -19 -20 -25 -11 -6 -20 -15
-20 -21 0 -5 -12 -21 -27 -36 l-28 -25 -3 31 c-5 46 26 183 66 295 l35 100
-23 18 c-42 34 -65 23 -90 -42 -55 -146 -201 -399 -266 -460 l-37 -35 7 57 c7
62 61 248 99 342 26 64 26 83 -4 115 -27 29 -47 26 -60 -6 -68 -170 -129 -391
-129 -467 0 -43 4 -53 36 -82 41 -39 73 -43 114 -14 33 24 134 153 151 195
l13 30 6 -50 c10 -82 51 -142 89 -130 10 3 43 35 72 70 30 35 55 63 56 61 1
-1 -9 -44 -22 -95 -33 -122 -33 -127 11 -141 29 -10 39 -10 50 1 7 8 29 79 49
157 19 79 48 169 64 200 47 93 164 242 190 242 14 0 14 -70 1 -141 -10 -49 -9
-55 12 -76 13 -12 34 -24 48 -25 21 -3 25 1 26 27 1 17 5 72 9 123 9 109 1
132 -56 157 -51 23 -71 16 -153 -52 l-69 -57 6 50 c5 42 3 52 -14 62 -24 16
-48 15 -54 0z"/>
<path d="M5723 1058 c-4 -7 -28 -60 -54 -118 -76 -175 -208 -386 -256 -414
-14 -8 -15 -2 -10 47 8 67 66 262 102 343 22 50 24 62 14 86 -11 27 -36 48
-57 48 -30 0 -152 -394 -152 -492 0 -41 5 -54 29 -78 36 -37 75 -47 109 -29
31 17 139 150 161 199 l15 35 6 -50 c5 -52 39 -119 65 -129 8 -3 22 -3 30 0
21 9 245 280 245 297 0 8 -7 20 -15 27 -23 19 -57 0 -96 -54 -18 -25 -36 -46
-41 -46 -4 0 -8 -7 -8 -15 0 -8 -9 -19 -20 -25 -11 -6 -20 -16 -20 -23 0 -6
-12 -22 -27 -35 l-28 -24 -4 24 c-6 40 20 158 61 283 l40 120 -22 17 c-26 21
-55 23 -67 6z"/>
<path d="M1069 313 c-13 -16 -12 -17 4 -4 9 7 17 15 17 17 0 8 -8 3 -21 -13z"/>
</g>
</svg>
